<svg id="Layer_1" data-name="Layer 1" xmlns="http://www.w3.org/2000/svg" viewBox="0 0 329.78 106.11"><defs><style>.cls-1,.cls-3,.cls-6{fill:none;}.cls-1,.cls-2,.cls-3{stroke:#231f20;stroke-miterlimit:10;}.cls-1,.cls-2{stroke-linecap:round;}.cls-2{fill:#2bb673;fill-rule:evenodd;}.cls-4,.cls-5,.cls-7{fill:#231f20;}.cls-5{font-size:14px;font-family:Arial-BoldMT, Arial;font-weight:700;}.cls-6{stroke:#2bb673;stroke-linecap:square;stroke-linejoin:round;stroke-width:4px;}.cls-7{font-size:60.59px;font-family:Symbol, Symbol;}</style></defs><title>STED_anitbody_microtubule</title><circle class="cls-1" cx="70.32" cy="53.02" r="17.03"/><path class="cls-2" d="M75,23.81A42.74,42.74,0,1,1,32.26,66.55,42.74,42.74,0,0,1,75,23.81ZM92,66.56a17,17,0,1,0-17,17A17,17,0,0,0,92,66.56Z" transform="translate(-4.69 -13.54)"/><line class="cls-3" x1="28.89" y1="16.52" x2="33.34" y2="20.99"/><polygon class="cls-4" points="28.74 21.61 32.47 20.11 33.99 16.39 37.55 25.22 28.74 21.61"/><line class="cls-3" x1="61.47" y1="47.25" x2="65.92" y2="51.72"/><polygon class="cls-4" points="60.83 51.85 62.34 48.12 66.08 46.63 57.26 43.02 60.83 51.85"/><text class="cls-5" transform="translate(0 13.09)">17.5 nm</text><line class="cls-3" x1="64.42" y1="62.37" x2="76.07" y2="44.65"/><polygon class="cls-4" points="69.06 62.06 65.1 61.34 62.87 57.99 61.14 67.36 69.06 62.06"/><polygon class="cls-4" points="77.62 49.03 75.39 45.69 71.43 44.97 79.35 39.66 77.62 49.03"/><text class="cls-5" transform="translate(82.46 39.3)">25 nm</text><polyline class="cls-6" points="176.51 104.03 182.86 103.79 188 103.51 192.16 103.22 195.82 102.89 198.76 102.56 201.45 102.19 203.89 101.77 205.85 101.36 207.81 100.88 209.52 100.38 210.98 99.88 212.45 99.29 213.67 98.72 214.9 98.06 215.88 97.46 216.85 96.79 217.83 96.02 218.81 95.14 219.54 94.4 220.28 93.58 221.01 92.66 221.74 91.64 222.48 90.48 223.21 89.19 223.94 87.72 224.68 86.06 225.41 84.17 226.15 82.01 226.88 79.53 227.61 76.69 228.35 73.42 229.08 69.65 229.81 65.31 230.55 60.32 231.28 54.63 232.01 48.2 232.75 41.05 233.73 30.67 234.95 17.47 235.44 12.68 235.93 8.51 236.41 5.21 236.66 3.95 236.9 2.98 237.15 2.33 237.39 2 237.64 2 237.88 2.33 238.13 2.98 238.37 3.95 238.62 5.21 238.86 6.74 239.35 10.5 239.84 15.01 240.57 22.64 242.28 41.05 243.02 48.2 243.75 54.63 244.49 60.32 245.22 65.31 245.95 69.65 246.69 73.42 247.42 76.69 248.15 79.53 248.89 82.01 249.62 84.17 250.35 86.06 251.09 87.72 251.82 89.19 252.55 90.48 253.29 91.64 254.02 92.66 254.75 93.58 255.49 94.4 256.47 95.37 257.44 96.22 258.42 96.97 259.4 97.62 260.38 98.2 261.6 98.84 262.82 99.39 264.29 99.97 265.76 100.46 267.47 100.95 269.18 101.36 271.14 101.77 273.34 102.15 275.78 102.5 278.72 102.84 282.14 103.16 286.06 103.45 290.7 103.72 296.32 103.96 298.53 104.03"/><text class="cls-7" transform="translate(147.82 72.11)">⊗</text><line class="cls-3" x1="214.15" y1="53.02" x2="225.31" y2="53.02"/><polygon class="cls-4" points="222.5 56.72 224.07 53.02 222.5 49.31 231.28 53.02 222.5 56.72"/><line class="cls-3" x1="250.13" y1="53.01" x2="261.3" y2="53.01"/><polygon class="cls-4" points="252.94 56.72 251.37 53.01 252.94 49.31 244.16 53.01 252.94 56.72"/><text class="cls-5" transform="translate(264.45 56.79)">psf_fwhm</text></svg>