<svg id="Layer_1" data-name="Layer 1" xmlns="http://www.w3.org/2000/svg" viewBox="0 0 316.16 106.36"><defs><style>.cls-1,.cls-3,.cls-5{fill:none;}.cls-1,.cls-2,.cls-5{stroke:#231f20;stroke-miterlimit:10;}.cls-1,.cls-2{stroke-linecap:round;}.cls-2{fill:#2bb673;fill-rule:evenodd;}.cls-3{stroke:#2bb673;stroke-linecap:square;stroke-linejoin:round;stroke-width:4px;}.cls-4{font-size:60.59px;font-family:Symbol, Symbol;}.cls-4,.cls-6,.cls-7{fill:#231f20;}.cls-7{font-size:14px;font-family:Arial-BoldMT, Arial;font-weight:700;}</style></defs><title>SNAP_labeled_tubule</title><ellipse class="cls-1" cx="68.51" cy="59.24" rx="33.17" ry="33.17"/><path class="cls-2" d="M81.61,25.57A44.64,44.64,0,1,1,37,70.2,44.64,44.64,0,0,1,81.61,25.57ZM114.78,70.2a33.17,33.17,0,1,0-33.17,33.18A33.16,33.16,0,0,0,114.78,70.2Z" transform="translate(-13.1 -10.96)"/><polyline class="cls-3" points="162.88 104.28 169.24 104.03 174.37 103.76 178.53 103.47 182.2 103.14 185.13 102.81 187.82 102.43 190.27 102.02 192.22 101.61 194.18 101.13 195.89 100.63 197.36 100.12 198.83 99.53 200.05 98.97 201.27 98.31 202.25 97.71 203.23 97.03 204.21 96.27 205.18 95.39 205.92 94.65 206.65 93.83 207.38 92.91 208.12 91.88 208.85 90.73 209.59 89.43 210.32 87.97 211.05 86.31 211.79 84.42 212.52 82.25 213.25 79.78 213.99 76.94 214.72 73.67 215.45 69.9 216.19 65.56 216.92 60.57 217.65 54.88 218.39 48.44 219.12 41.3 220.1 30.91 221.32 17.72 221.81 12.93 222.3 8.76 222.79 5.45 223.03 4.2 223.28 3.23 223.52 2.58 223.77 2.25 224.01 2.25 224.26 2.58 224.5 3.23 224.75 4.2 224.99 5.45 225.24 6.98 225.72 10.75 226.21 15.26 226.95 22.89 228.66 41.3 229.39 48.44 230.13 54.88 230.86 60.57 231.59 65.56 232.33 69.9 233.06 73.67 233.79 76.94 234.53 79.78 235.26 82.25 235.99 84.42 236.73 86.31 237.46 87.97 238.19 89.43 238.93 90.73 239.66 91.88 240.4 92.91 241.13 93.83 241.86 94.65 242.84 95.62 243.82 96.47 244.8 97.21 245.78 97.87 246.75 98.45 247.98 99.08 249.2 99.64 250.67 100.21 252.13 100.7 253.84 101.19 255.56 101.61 257.51 102.02 259.71 102.39 262.16 102.75 265.09 103.09 268.52 103.41 272.43 103.7 277.07 103.96 282.7 104.2 284.9 104.28"/><text class="cls-4" transform="translate(134.2 72.36)">⊗</text><line class="cls-5" x1="52.97" y1="80.88" x2="84.38" y2="37.15"/><polygon class="cls-6" points="57.62 80.76 53.69 79.88 51.6 76.44 49.49 85.73 57.62 80.76"/><polygon class="cls-6" points="85.75 41.6 83.66 38.16 79.73 37.27 87.86 32.31 85.75 41.6"/><text class="cls-7" transform="translate(72.91 66.28)">d</text><line class="cls-5" x1="200.52" y1="53.26" x2="211.68" y2="53.26"/><polygon class="cls-6" points="208.88 56.97 210.45 53.26 208.88 49.56 217.65 53.26 208.88 56.97"/><line class="cls-5" x1="236.51" y1="53.26" x2="247.67" y2="53.26"/><polygon class="cls-6" points="239.32 56.96 237.74 53.26 239.32 49.55 230.54 53.26 239.32 56.96"/><text class="cls-7" transform="translate(250.82 57.03)">psf_fwhm</text><line class="cls-5" x1="31.19" y1="16.06" x2="35.64" y2="20.54"/><polygon class="cls-6" points="31.04 21.16 34.77 19.66 36.28 15.94 39.85 24.77 31.04 21.16"/><line class="cls-5" x1="52.83" y1="37.81" x2="57.28" y2="42.29"/><polygon class="cls-6" points="52.19 42.42 53.7 38.69 57.44 37.19 48.62 33.58 52.19 42.42"/><text class="cls-7" transform="translate(0 12.01)">4.5 nm</text></svg>