<svg id="Layer_1" data-name="Layer 1" xmlns="http://www.w3.org/2000/svg" viewBox="0 0 297.89 106.11"><defs><style>.cls-1{fill:#2bb673;stroke-linecap:round;}.cls-1,.cls-2{stroke:#231f20;stroke-miterlimit:10;}.cls-2,.cls-5{fill:none;}.cls-3,.cls-4,.cls-6{fill:#231f20;}.cls-4{font-size:14px;font-family:Arial-BoldMT, Arial;font-weight:700;}.cls-5{stroke:#2bb673;stroke-linecap:square;stroke-linejoin:round;stroke-width:4px;}.cls-6{font-size:60.59px;font-family:Symbol, Symbol;}</style></defs><title>lumen_labeled_tubule</title><circle class="cls-1" cx="45.64" cy="53.64" r="45.14"/><line class="cls-2" x1="22.79" y1="85.45" x2="68.48" y2="21.83"/><polygon class="cls-3" points="27.44 85.33 23.52 84.44 21.43 81.01 19.31 90.3 27.44 85.33"/><polygon class="cls-3" points="69.85 26.28 67.76 22.84 63.83 21.96 71.96 16.99 69.85 26.28"/><text class="cls-4" transform="translate(53.82 66.38)">d</text><polyline class="cls-5" points="144.61 104.03 150.97 103.79 156.1 103.51 160.26 103.22 163.93 102.89 166.86 102.56 169.55 102.19 172 101.77 173.95 101.36 175.91 100.88 177.62 100.38 179.09 99.88 180.56 99.29 181.78 98.72 183 98.06 183.98 97.46 184.96 96.79 185.94 96.02 186.91 95.14 187.65 94.4 188.38 93.58 189.12 92.66 189.85 91.64 190.58 90.48 191.32 89.19 192.05 87.72 192.78 86.06 193.52 84.17 194.25 82.01 194.98 79.53 195.72 76.69 196.45 73.42 197.18 69.65 197.92 65.31 198.65 60.32 199.38 54.63 200.12 48.2 200.85 41.05 201.83 30.67 203.05 17.47 203.54 12.68 204.03 8.51 204.52 5.21 204.76 3.95 205.01 2.98 205.25 2.33 205.5 2 205.74 2 205.99 2.33 206.23 2.98 206.48 3.95 206.72 5.21 206.97 6.74 207.46 10.5 207.94 15.01 208.68 22.64 210.39 41.05 211.12 48.2 211.86 54.63 212.59 60.32 213.32 65.31 214.06 69.65 214.79 73.42 215.52 76.69 216.26 79.53 216.99 82.01 217.72 84.17 218.46 86.06 219.19 87.72 219.93 89.19 220.66 90.48 221.39 91.64 222.13 92.66 222.86 93.58 223.59 94.4 224.57 95.37 225.55 96.22 226.53 96.97 227.51 97.62 228.48 98.2 229.71 98.84 230.93 99.39 232.4 99.97 233.86 100.46 235.57 100.95 237.29 101.36 239.24 101.77 241.44 102.15 243.89 102.5 246.82 102.84 250.25 103.16 254.16 103.45 258.81 103.72 264.43 103.96 266.63 104.03"/><text class="cls-6" transform="translate(115.93 72.11)">⊗</text><line class="cls-2" x1="182.25" y1="53.02" x2="193.42" y2="53.02"/><polygon class="cls-3" points="190.61 56.72 192.18 53.02 190.61 49.31 199.38 53.02 190.61 56.72"/><line class="cls-2" x1="218.24" y1="53.01" x2="229.4" y2="53.01"/><polygon class="cls-3" points="221.05 56.72 219.47 53.01 221.05 49.31 212.27 53.01 221.05 56.72"/><text class="cls-4" transform="translate(232.55 56.79)">psf_fwhm</text></svg>